<svg xmlns="http://www.w3.org/2000/svg" viewBox="0 0 338 335.07"><defs><style>.cls-1{fill:#fff;}.cls-2{fill:#20c718;}.cls-3{fill:none;stroke:#fff;stroke-miterlimit:10;stroke-width:23px;}</style></defs><title>Asset 1</title><g id="Layer_2" data-name="Layer 2"><g id="Layer_1-2" data-name="Layer 1"><path class="cls-1" d="M42,52.49v-42a10.5,10.5,0,1,1,21,0v42a10.5,10.5,0,1,1-21,0Z"/><path class="cls-1" d="M220.44,63a10.49,10.49,0,0,0,10.5-10.5v-42a10.5,10.5,0,1,0-21,0v42A10.49,10.49,0,0,0,220.44,63Z"/><path class="cls-2" d="M338,251.09a84,84,0,1,1-84-84,84,84,0,0,1,84,84Z"/><path class="cls-2" d="M317,251.09a63,63,0,1,0-63,63,63.05,63.05,0,0,0,63-63Z"/><rect class="cls-1" x="41.99" y="125.97" width="41.99" height="41.99"/><rect class="cls-1" x="41.99" y="188.95" width="41.99" height="41.99"/><rect class="cls-1" x="104.97" y="125.97" width="41.99" height="41.99"/><rect class="cls-1" x="104.97" y="188.95" width="41.99" height="41.99"/><path class="cls-1" d="M21,249.84V105H251.93v42h21V65.08A22.91,22.91,0,0,0,250.19,42h-8.76v10.5a21,21,0,1,1-42,0V42h-126v10.5a21,21,0,1,1-42,0V42H22.75A22.92,22.92,0,0,0,0,65.08V249.84a22.94,22.94,0,0,0,22.75,23.08H147v-21H22.75A2,2,0,0,1,21,249.84Z"/><rect class="cls-1" x="167.96" y="125.97" width="41.99" height="41.99"/><path d="M283.43,251.93"/><polyline class="cls-3" points="207.19 254.33 236.25 283.39 300.86 218.78"/></g></g></svg>