<svg xmlns="http://www.w3.org/2000/svg" viewBox="0 0 245.61 267.08"><defs><style>.cls-1{fill:#f4f4f4;}.cls-1,.cls-10,.cls-11,.cls-12,.cls-13,.cls-14,.cls-15,.cls-16,.cls-17,.cls-18,.cls-19,.cls-2,.cls-20,.cls-21,.cls-3,.cls-4,.cls-5,.cls-6,.cls-7,.cls-8,.cls-9{fill-rule:evenodd;}.cls-2{fill:#efcab9;}.cls-3{fill:#efc3af;}.cls-4{fill:#f14e57;}.cls-5{fill:#d14754;}.cls-6{fill:#806a50;}.cls-7{fill:#fbd2c0;}.cls-8{fill:#6e593f;}.cls-9{fill:#43525a;}.cls-10{fill:#ef5b72;}.cls-11{fill:#d94d63;}.cls-12,.cls-22{fill:#fff;}.cls-13{fill:#404041;}.cls-14{fill:#343538;}.cls-15{fill:#231f20;}.cls-16{fill:#83384a;}.cls-17{fill:#e4e5e6;}.cls-18{fill:#d5a591;}.cls-19{fill:#3d4950;}.cls-20{fill:#7c654c;}.cls-21{fill:#886e54;}</style></defs><title>Asset 1</title><g id="Layer_2" data-name="Layer 2"><g id="Layer_1-2" data-name="Layer 1"><path id="_Path_" data-name="&lt;Path&gt;" class="cls-1" d="M158,159.33c-3.13,1-12.56,7.23-18.52,4.53s-20.81-10.73-21.52-11.3-4-1.3-3.86-3.4-1.15-2.41,1.4-4.28,4.26-.47,5.62-1.16,1.22,2.54,3.93,4.24,9.14,6.07,12.56,6.34,12.5-6.33,17-7.35S158,159.33,158,159.33Z"/><path id="_Path_2" data-name="&lt;Path&gt;" class="cls-2" d="M69.81,152.77C80.65,148,134.93,128.58,136.67,119c.83-4.56,2.21-13.68,3.92-12.26S143.78,117,143.78,117s8.54-.9,11.94-3.48,5.39-4,6.56,1.67,1.2,11.1-6.47,14.56-13.8,1.5-15.5,2.64c-16.09,10.85-50.75,26.53-70.31,30Z"/><path id="_Path_3" data-name="&lt;Path&gt;" class="cls-3" d="M149.86,133.93c-5.94,1.61-10.47.39-11.89,1.35-9.72,6.55-26.21,14.87-42.06,21.19a3.25,3.25,0,0,1-1.81-2.55c.85-.29,18.6-9.21,29.11-14s28.68-15.81,28.54-15A24.6,24.6,0,0,1,149.86,133.93Z"/><path id="_Path_4" data-name="&lt;Path&gt;" class="cls-4" d="M62.68,155.79c-1.8,6.69,1,11.64,9.22,13.34s33.47-8.24,32.56-10.57-5.06-17.85-5.06-17.85C92.28,143.13,64.47,149.1,62.68,155.79Z"/><path id="_Path_5" data-name="&lt;Path&gt;" class="cls-5" d="M62.51,156.46c-1.44,6.35,1.44,11,9.39,12.68,8.23,1.7,33.47-8.24,32.56-10.57-.19-.49-.53-1.57-.94-3-4.61,3.13-12.6,7.85-20.76,8.95C74,165.73,66,159.64,62.51,156.46Z"/><path id="_Path_6" data-name="&lt;Path&gt;" class="cls-6" d="M17.38,129.94c.34.8-.8-1,.34.8s5.23,6,11.37,8.8,9.88,3.15,9.41,2.88A16.82,16.82,0,0,1,36,140.3a36.5,36.5,0,0,0,4.73.91c2.79.42,5.33.57,4.8.17s-4.7-19.09-5.63-19.75S17.19,129.91,17.38,129.94Z"/><path id="_Path_7" data-name="&lt;Path&gt;" class="cls-7" d="M40.85,136c1.88,1.86,4.43,11.53,4.43,11.53l12-4.23-6.6-8Z"/><path id="_Path_8" data-name="&lt;Path&gt;" class="cls-7" d="M58,79.56c.52.41,4.42,10,7.46,13.07,9.63,9.86,18.79,18.37,5.63,36.15A29.15,29.15,0,0,1,40,139.17c-11-3.27-14.39-6.37-14.39-6.37,1.22,2.65-16.06,7.77-17.72-6.15-.74-6.19,4.52-10.43,3.9-10.43s-3.36-5.39-3.37-6.85S26.24,89.51,36,79.88s17.64-9.25,17.64-9.25Z"/><path id="_Path_9" data-name="&lt;Path&gt;" class="cls-8" d="M62.4,85.87C54.12,87.65,51.32,94.37,50,96.68c-.72,1.22-2.19,1-1.33-.76s2.7-5.71,5.29-8,5.21-3.43,7.41-3.37S62.4,85.87,62.4,85.87Z"/><path id="_Path_10" data-name="&lt;Path&gt;" class="cls-8" d="M42.69,100c-8.28,1.78-11.08,8.5-12.44,10.81-.72,1.22-2.19,1-1.33-.76s2.7-5.71,5.29-8,5.21-3.43,7.41-3.37S42.69,100,42.69,100Z"/><path id="_Path_11" data-name="&lt;Path&gt;" class="cls-6" d="M57.74,65.25c12,11.85.36,27.94.56,26.48s-5-15.41-5-15.41c1.26,6.09,1.21,17.51-2.44,22.73.61-3.54-8.42-18.48-7.37-16.61,3.39,6-5.93,19.59-5.32,17.92S36,88.93,36,88.93a44.61,44.61,0,0,1-3.28,10.21C30.48,103.74,28,106,28.61,105s.37-7.91.37-7.91-2.23,10.83-3.26,13.75-1.22,4.79-1.23,3.34S22,105.86,22,105.86s-3.09,6.05.26,9.57S32.61,128,32.61,128l-5.55,0s-5.74-10.67-10.25-11-8.2,4.31-8.2,4.31-7.3-3.19-8.51-15.15S8,92.41,8,92.41C9.67,77.18,41.08,48.8,57.74,65.25Z"/><path class="cls-9" d="M77,223.83c-3.93,5-9.32,19.49-18.83,36.52a107,107,0,0,0,17.17,4.57c9.27-18.73,14.7-33.93,17.32-37.61,0,0-2.06,21.31-4.26,39.78h17.33c.58-23.41,1.28-47.59,1.28-47.59Z"/><path id="_Path_12" data-name="&lt;Path&gt;" class="cls-4" d="M61,142.5c-1.9-.67-1.51-1.64-10.85,1.14s-13.67,7.27-14.07,9.17,15.69,14.44,25,38.83,1.92,40.14-.18,43.58c-2.33,3.81,35.42-5.48,39.89-6.42,9.22-1.95,12.47-3.87,12.47-3.87C102.81,187.25,93.82,152.85,61,142.5Z"/><path id="_Path_13" data-name="&lt;Path&gt;" class="cls-5" d="M36.79,151.43a3.91,3.91,0,0,0-.7,1.38c-.4,1.9,15.69,14.44,25,38.83s1.92,40.14-.18,43.58c-2.33,3.81,35.42-5.48,39.89-6.42,9.22-1.95,12.47-3.87,12.47-3.87s-26.88,2.53-33.27,2-8.83,0-9.48-7,4.17-18,4.14-23.78-6.12-6.36-12.58-18.21-17.35-27-20.56-28.69C40.44,148.67,38.67,149.69,36.79,151.43Z"/><path id="_Path_14" data-name="&lt;Path&gt;" class="cls-1" d="M163.26,95.48c-5.67,4.38-22,16-28.4,14.13s-24.61-10.94-28.35-11.06-4.78,5.48-6.68,1.66S99,94,102.9,91.5c7.35-4.59,24.75,12.06,31.88,7.46,5.55-3.58,3.75-7.5,9.65-12.77S163.26,95.48,163.26,95.48Z"/><path id="_Path_15" data-name="&lt;Path&gt;" class="cls-10" d="M100,86c-3.69,4.92-8.07,9-14.61,9.47s-7,3.2-8.81,2.47.12-4.56,2.67-6.42,3.32-1.76,7.13-3S94,82.88,94,82.88Z"/><path id="_Path_16" data-name="&lt;Path&gt;" class="cls-11" d="M96.06,90.46a16.92,16.92,0,0,1-10.7,5c-6.55.46-7,3.2-8.81,2.47a1.25,1.25,0,0,1-.71-1.43,3.11,3.11,0,0,0,2.49-.21,92.24,92.24,0,0,1,9.77-3.1c1.86-.47,6.3-3.42,7.21-4.72A3.5,3.5,0,0,1,96.06,90.46Z"/><path id="_Path_17" data-name="&lt;Path&gt;" class="cls-12" d="M132.82,83.68c-4.11,4.15-4.94,14.48-6.34,28.65s19.11,43.26,19.11,43.26l-4.09,8s-17.7-.94-21.1-1.66-5.18-3.07-7.25-3.5-3.69.31-3.53,2.08-.43,2.66-.27,4-.14,1.77,1.49,3.53,3.84,1.16,6.65,1.73,28.5,6.34,35.57,5.71,10-6.84,11.76-6.85c11.6-.06,24.86-5.78,28.82-16.12,1.08-2.83,36.62-.44,47.77-22.81,11-22-3.11-31.07-2.91-29.75,2.69,18.22-29.12,45.79-43.09,38.57-5.12-2.65-6.81-9.09-12.57-14.5-14-13.2-19-39.34-20.15-51-.31-3.24,3.16-15.65-2.2-25.65s-16.6-14.66-25.44-14.32-13.54,5.68-27.93,17.55S80.72,76.43,81,81.45s5.06,8.23,14.21,9.36S132.82,83.68,132.82,83.68Z"/><path id="_Path_18" data-name="&lt;Path&gt;" class="cls-13" d="M85,73.18c-.81-.06-3.06,2.61-4.44,4.48l-.23.32a5.23,5.23,0,0,0,.32,7c2.22,2.69,6.14,4.17,7.7,2.24S85,73.18,85,73.18Z"/><path id="_Path_19" data-name="&lt;Path&gt;" class="cls-14" d="M79.34,79.81a5.26,5.26,0,0,0,1.27,5.13c2.22,2.69,6.14,4.17,7.7,2.24a2.14,2.14,0,0,0,.3-1.31C83.28,86.58,82.34,83.29,79.34,79.81Z"/><path id="_Path_20" data-name="&lt;Path&gt;" class="cls-15" d="M112.49,57.51c4.62-4.6,11,.82,8.84,2.94C120.83,56.66,116,55.57,112.49,57.51Z"/><path id="_Path_21" data-name="&lt;Path&gt;" class="cls-7" d="M61,142.5c11.6-5.09,69.66-25.88,71.52-36.09.89-4.88,2.36-14.63,4.19-13.12s3.41,10.95,3.41,10.95,9.13-1,12.77-3.72,5.76-4.29,7,1.79,1.28,11.87-6.92,15.57-14.76,1.6-16.58,2.83c-17.21,11.6-54.28,28.37-75.21,32.07Z"/><path id="_Path_22" data-name="&lt;Path&gt;" class="cls-3" d="M160.53,107.35c0,4.14-1.64,7.88-7.53,10.53-8.2,3.7-14.76,1.6-16.58,2.83-14.57,9.83-43.4,23.36-64.6,29.52-1.19-1.88-1.79-3.38-1.94-3.09-.41.79,6.39-1.4,20.22-7.11s44.35-21.55,44.35-21.55a112.16,112.16,0,0,0,17.44-3.58A13.92,13.92,0,0,0,160.53,107.35Z"/><path id="_Path_23" data-name="&lt;Path&gt;" class="cls-4" d="M36.09,152.81c-1.8,6.69,1.31,14.08,9.54,15.78s33-11.79,33-11.79l-5.83-19.06C65.69,140.15,37.89,146.12,36.09,152.81Z"/><path id="_Path_24" data-name="&lt;Path&gt;" class="cls-5" d="M36.09,152.81c-1.8,6.69,1.31,14.08,9.54,15.78s33-11.79,33-11.79l-1-3.38c-8.89,2.89-28.78,9.51-34.32,5.74a15.15,15.15,0,0,1-6-8.22A4.44,4.44,0,0,0,36.09,152.81Z"/><path id="_Path_25" data-name="&lt;Path&gt;" class="cls-12" d="M154.43,97.36c-4.74,5.37-18.64,19.89-25.24,19.21S103,110.45,99.26,111s-3.67,6.28-6.25,2.88-2-6,1.38-9.12,3.41-.87,8-1.18,20,7.08,24.75,2.51,2.27-8.07,7.08-14.36S154.43,97.36,154.43,97.36Z"/><path id="_Path_26" data-name="&lt;Path&gt;" class="cls-6" d="M46.2,104.88c-7.31-1.19-10.76,2.39-10,9.67C32.9,107.19,40,101.45,46.2,104.88Z"/><path id="_Path_27" data-name="&lt;Path&gt;" class="cls-6" d="M64.51,94.51c-4.77-2.53-8.6,1.77-10.12,6.12C53.74,95.23,61.42,90,64.51,94.51Z"/><polygon id="_Path_28" data-name="&lt;Path&gt;" class="cls-4" points="162.7 72.06 164.7 77.92 129.64 89.88 127.6 85.8 162.7 72.06"/><polygon id="_Path_29" data-name="&lt;Path&gt;" class="cls-4" points="163.7 74.99 164.7 77.92 129.64 89.88 128.82 88.22 163.7 74.99 163.7 74.99"/><path id="_Path_30" data-name="&lt;Path&gt;" class="cls-16" d="M46.15,124c6.11,10.14,31,5.78,25-14.39C65.27,114.92,48.2,122,46.15,124Z"/><path id="_Path_31" data-name="&lt;Path&gt;" class="cls-10" d="M49.88,127.51a22.46,22.46,0,0,0,4.57,1.67c6.81-3.81,5-3.17,8.49-5.11-.76,0-3.44-.28-4.29-.19A20.92,20.92,0,0,0,49.88,127.51Z"/><path id="_Path_32" data-name="&lt;Path&gt;" class="cls-17" d="M54.45,129.17c9.44.86,15.81-3.86,17.28-10.31-.4-.55-.42-.58-.65-.46C70.6,118.64,57.9,126.76,54.45,129.17Z"/><path id="_Path_33" data-name="&lt;Path&gt;" class="cls-12" d="M71.17,119.13c-.43.22-11.27,7.15-15.66,10.11,8.64.42,14.51-4,16.1-9.94C71.41,119,71.35,119,71.17,119.13Z"/><path id="_Path_34" data-name="&lt;Path&gt;" class="cls-17" d="M50.63,126.27c.76-.47,20-11.7,20.28-12.43.22-.49-.55-2-1.24-3C62.79,116,48,122.16,46.15,124a9.87,9.87,0,0,0,2.82,3A6.68,6.68,0,0,0,50.63,126.27Z"/><path id="_Path_35" data-name="&lt;Path&gt;" class="cls-12" d="M46.15,124a9.61,9.61,0,0,0,2.2,2.48,6.24,6.24,0,0,0,1.29-.55c.78-.48,20.34-11.92,20.68-12.67.17-.39-.26-1.37-.79-2.31C62.58,116,48,122.17,46.15,124Z"/><path id="_Path_36" data-name="&lt;Path&gt;" class="cls-18" d="M53.94,103.64s9.53,1.35,9.34,2.55-3.3,4.95-4.5,5.62-2.33.95-1.8.54,5.1-5.42,4.57-5.42S53.94,103.64,53.94,103.64Z"/><path id="_Path_37" data-name="&lt;Path&gt;" class="cls-3" d="M25.64,132.79A41.34,41.34,0,0,0,40,139.17c8.27,1.8,1.85.49,2.79.67q1.1.2,2.21.31a29.31,29.31,0,0,0,26.08-11.37,35.21,35.21,0,0,0,5.78-10.83c-2.2,3.63-5.6,8.89-9.26,12-4.65,4-9.49,6.49-15.48,7.11a31.87,31.87,0,0,1-6.73-.06l-1.28-.16c-1.05-.15-2.09-.36-3.1-.59a68.07,68.07,0,0,1-14.87-5.83Z"/><path class="cls-19" d="M75.17,234.41c-1.52.29-3,.56-4.37.79-3.38,7-7.15,15.38-12.61,25.14l3.61,1C65.74,253.15,71.18,242.78,75.17,234.41Z"/><path class="cls-19" d="M96.3,229.83l-4,.91c-.67,6.76-2.26,22.37-3.92,36.34H94C94.24,256.33,95.37,239.08,96.3,229.83Z"/><path id="_Path_38" data-name="&lt;Path&gt;" class="cls-20" d="M39.24,99.07c2.21-3.43,6.77-12.13,4.24-16.62a101.73,101.73,0,0,1,6.07,11.64c.29.7.55,1.37.76,2a7.09,7.09,0,0,1,.54,3,19.26,19.26,0,0,0,2.73-8c.16-1,.27-2.09.35-3.16a45.38,45.38,0,0,0-.63-11.61s1.95,5.21,3.41,9.59c.23.68.44,1.34.64,2a16.69,16.69,0,0,1,1,3.86c-.08.59,1.75-1.66,3.19-5.32l.14-.35c.17-.45.33-.91.48-1.39,1.58-5,2-11.89-3-17.93a33.46,33.46,0,0,1,1.07,9.73c-.53,5.76-.43,6.42-.42,6.48-.08-.25-2.82-9.09-6.15-12.3a52.72,52.72,0,0,0-6.28-5.22s.93,2.54,1.78,6a46.26,46.26,0,0,1,1.34,8.43c.34,6.85-.11,7.77-.11,7.77S47.56,80,43.73,75.78l-1.14-1.25c-2.87-3.13-3.53-3.65-2.84-2.84.41.48.56,2.13.67,4.34.09,2,.15,4.34.3,6.77.33,5.18-1.16,10.36-1.17,9.6,0-.49-2.88-6.7-5-11.15-1.19-2.54-2.12-4.5-2.12-4.5s.29,2.93.41,6.21a32.41,32.41,0,0,1-.34,7.65l-.93,3.54L27.86,88,25.35,84s.15,3,.23,6.43a79,79,0,0,1-.15,9.48,35.38,35.38,0,0,1-.89,5c.06-.31-3.91-5.63-5.45-7.69l-.61-.81s-.07.62-.15,1.61c-.27,3-.72,9.56-.07,12.93a22.71,22.71,0,0,0,7.68,12.37c1,.83,1.86,1.53,2.67,2.13a30.49,30.49,0,0,0,4,2.59s-1-1.33-2.52-3.17c-2.36-2.94-5.82-7.19-7.88-9.35-3.35-3.52-.26-9.57-.26-9.57s2.53,6.85,2.54,8.31.21-.42,1.23-3.34S29,97.09,29,97.09s.24,6.87-.37,7.91,1.87-1.26,4.13-5.85A44.62,44.62,0,0,0,36,88.93s2.13,7.54,2.23,10.5a2.68,2.68,0,0,1-.09.93C38,100.79,38.49,100.23,39.24,99.07Z"/><path id="_Path_39" data-name="&lt;Path&gt;" class="cls-21" d="M45.49,62.38a14.78,14.78,0,0,1,9.84,3.37c-.38-.3-6.18-3.17-14.55-.61S25.69,76.87,23.06,82.6s-4.2,11.84-4.21,10.53C18.79,86.65,23.56,76,23.1,76.58S13.05,90.5,13.27,89.73C17,76.76,31.31,62.45,45.49,62.38Z"/><path class="cls-22" d="M142.13,47.12S159.33,22,174.71,29,205.83,45.83,202,61.58s-24,7-27.28,0-10.25-21.42-17-4.94S142.13,47.12,142.13,47.12Z"/><path class="cls-22" d="M123.7,47.07s-10.55-28.53,4-37.07,31.71-15.7,42.35-3.47-8.16,23.6-15.74,22.28-23.41-4-13.86,11.05S123.7,47.07,123.7,47.07Z"/></g></g></svg>