<svg xmlns="http://www.w3.org/2000/svg" xmlns:xlink="http://www.w3.org/1999/xlink" viewBox="0 0 263.51 245.83"><defs><style>.cls-1{fill:none;}.cls-2{fill:#793910;}.cls-3{fill:#e3d7ac;}.cls-4{fill:#f1a240;}.cls-5{fill:#f1e5b8;}.cls-6{fill:#0f0706;}.cls-7{fill:#ff8c5c;}.cls-8{fill:#f05a35;}.cls-9{fill:#202724;}.cls-10{fill:#dd4426;}.cls-11{fill:#c13c20;}.cls-12{fill:#5fbd97;}.cls-13{fill:#52a484;}.cls-14{fill:#f6f7d6;}.cls-15{fill:#0296a6;}.cls-16{clip-path:url(#clip-path);}.cls-17{fill:#048593;}.cls-18{clip-path:url(#clip-path-2);}.cls-19{fill:#e9eacc;}.cls-20{clip-path:url(#clip-path-3);}.cls-21{fill:#fff;}</style><clipPath id="clip-path"><circle class="cls-1" cx="107.28" cy="68.38" r="15.36"/></clipPath><clipPath id="clip-path-2"><circle class="cls-1" cx="74.58" cy="118.19" r="15.36"/></clipPath><clipPath id="clip-path-3"><circle class="cls-1" cx="146.67" cy="137.22" r="54.96"/></clipPath></defs><title>Asset 1</title><g id="Layer_2" data-name="Layer 2"><g id="Layer_1-2" data-name="Layer 1"><circle class="cls-2" cx="160.21" cy="57.03" r="8.86"/><circle class="cls-2" cx="179.17" cy="57.03" r="8.86"/><path class="cls-3" d="M172.56,59.57H168.1a4.38,4.38,0,0,0-2.65.9l4.72,16.48,5.51-16.08A4.39,4.39,0,0,0,172.56,59.57Z"/><path class="cls-4" d="M177,64a4.39,4.39,0,0,0-1.28-3.11l-5.51,16.08-4.72-16.48A4.39,4.39,0,0,0,163.69,64l-3.13,18.22a4.4,4.4,0,0,0,4.4,4.4H175.4a4.4,4.4,0,0,0,4.4-4.4Z"/><circle class="cls-5" cx="169.74" cy="50.82" r="15.36"/><circle class="cls-6" cx="163.55" cy="51.21" r="1.6"/><circle class="cls-6" cx="175.79" cy="51.21" r="1.6"/><ellipse class="cls-7" cx="169.49" cy="54.41" rx="2.28" ry="1.6"/><path class="cls-8" d="M169.87,60.84a8.6,8.6,0,0,1-5.35-2.07.57.57,0,0,1,.7-.9c5.13,4,8.82.22,9,.06a.57.57,0,0,1,.83.78A7.67,7.67,0,0,1,169.87,60.84Z"/><path class="cls-2" d="M185.24,50.82a11.9,11.9,0,0,1-9.74-8c-2.28,3.13-8.41,3.49-11.27,3.49-8.56,0-10,13-10,4.48a15.51,15.51,0,1,1,31,0Z"/><path class="cls-6" d="M163.59,55a3.82,3.82,0,1,1,3.82-3.82A3.82,3.82,0,0,1,163.59,55Zm0-7.07a3.25,3.25,0,1,0,3.25,3.25A3.25,3.25,0,0,0,163.59,47.92Z"/><path class="cls-6" d="M175.79,55a3.82,3.82,0,1,1,3.82-3.82A3.82,3.82,0,0,1,175.79,55Zm0-7.07A3.25,3.25,0,1,0,179,51.16,3.25,3.25,0,0,0,175.79,47.91Z"/><rect class="cls-6" x="167.21" y="50.77" width="5.34" height="0.7"/><rect class="cls-6" x="179.31" y="50.82" width="5.94" height="0.7"/><rect class="cls-6" x="154.23" y="50.77" width="5.94" height="0.7"/><path class="cls-9" d="M123.11,34.08c-.14,5.5-30.94,5-30.94,0V14.75l31,.64S123.25,28.58,123.11,34.08Z"/><path class="cls-3" d="M110.46,24.25H106a4.38,4.38,0,0,0-2.65.9l4.72,16.48,5.51-16.08A4.39,4.39,0,0,0,110.46,24.25Z"/><path class="cls-10" d="M114.87,23.25c0,4.19-.49,3.09-1.29,2.3L108.47,38l-5.12-12.87a4.39,4.39,0,0,0-1.75,3.51L98.47,46.88a4.4,4.4,0,0,0,4.4,4.4h10.43c2.43,0,4.4-2,4.4-9.81Z"/><polygon class="cls-11" points="115.23 26.94 112.99 41.24 108.47 38.02 112.78 25.84 115.23 26.94"/><polygon class="cls-11" points="101.71 26.94 103.95 41.24 108.47 38.02 104.06 26.01 101.71 26.94"/><circle class="cls-5" cx="107.65" cy="15.51" r="15.36"/><circle class="cls-6" cx="101.46" cy="15.9" r="1.6"/><circle class="cls-6" cx="113.69" cy="15.9" r="1.6"/><ellipse class="cls-7" cx="107.4" cy="19.1" rx="2.28" ry="1.6"/><path class="cls-8" d="M107.77,25.52a8.6,8.6,0,0,1-5.35-2.07.57.57,0,0,1,.7-.9c5.13,4,8.82.22,9,.06a.57.57,0,0,1,.83.78A7.67,7.67,0,0,1,107.77,25.52Z"/><path class="cls-9" d="M123.15,15.51c-6.46-1.09-15.42-6.31-16.47-9-2.28,3.13-2.57,4.17-5.93,4.88-8.38,1.77-8.61,12.65-8.61,4.08a15.51,15.51,0,0,1,31,0Z"/><rect class="cls-3" x="64.18" y="32.66" width="11.11" height="15.86"/><path class="cls-12" d="M79.31,52a4.4,4.4,0,0,1-4.4,4.4H64.47a4.4,4.4,0,0,1-4.4-4.4L63.2,33.75c0-2.43,6.49,11.16,6.49,11.16s6.78-13.6,6.78-11.16Z"/><polygon class="cls-13" points="76.45 33.84 74.21 48.13 69.69 44.92 75.28 33.27 76.45 33.84"/><polygon class="cls-13" points="62.93 33.84 65.17 48.13 69.69 44.92 64.1 33.27 62.93 33.84"/><circle class="cls-5" cx="69.25" cy="20.6" r="15.36"/><circle class="cls-6" cx="63.06" cy="20.99" r="1.6"/><circle class="cls-6" cx="75.29" cy="20.99" r="1.6"/><ellipse class="cls-7" cx="69" cy="24.19" rx="2.28" ry="1.6"/><path class="cls-8" d="M69.37,31.18A8.6,8.6,0,0,1,64,29.11a.57.57,0,1,1,.7-.9c5.13,4,8.82.22,9,.06a.57.57,0,0,1,.83.78A7.66,7.66,0,0,1,69.37,31.18Z"/><path class="cls-2" d="M84.75,20.6c-1.66-.28-6.7-5.08-7.13-7.07a29,29,0,0,1-7,3.13c0-3.27-.08-3.13-1-5.41-1.88,5-11.84,8.78-15.95,9.34a15.51,15.51,0,0,1,31,0Z"/><circle class="cls-2" cx="116.79" cy="46.27" r="8.86"/><circle class="cls-2" cx="135.75" cy="46.27" r="8.86"/><path class="cls-3" d="M129.14,48.82h-4.46a4.38,4.38,0,0,0-2.65.9l4.72,16.48,5.51-16.08A4.39,4.39,0,0,0,129.14,48.82Z"/><path class="cls-4" d="M133.54,53.22a4.39,4.39,0,0,0-1.28-3.11L126.74,66.2,122,49.71a4.39,4.39,0,0,0-1.75,3.51l-3.13,18.22a4.4,4.4,0,0,0,4.4,4.4H132a4.4,4.4,0,0,0,4.4-4.4Z"/><circle class="cls-5" cx="126.32" cy="40.07" r="15.36"/><circle class="cls-6" cx="120.13" cy="40.46" r="1.6"/><circle class="cls-6" cx="132.37" cy="40.46" r="1.6"/><ellipse class="cls-7" cx="126.07" cy="43.66" rx="2.28" ry="1.6"/><path class="cls-8" d="M126.45,50.08A8.6,8.6,0,0,1,121.1,48a.57.57,0,0,1,.7-.9c5.13,4,8.82.22,9,.06a.57.57,0,0,1,.83.78A7.67,7.67,0,0,1,126.45,50.08Z"/><path class="cls-2" d="M141.83,40.07a11.9,11.9,0,0,1-9.74-8c-2.28,3.13-8.41,3.49-11.27,3.49-8.56,0-10,13-10,4.48a15.51,15.51,0,1,1,31,0Z"/><path class="cls-6" d="M120.17,44.24A3.82,3.82,0,1,1,124,40.42,3.82,3.82,0,0,1,120.17,44.24Zm0-7.07a3.25,3.25,0,1,0,3.25,3.25A3.25,3.25,0,0,0,120.17,37.17Z"/><path class="cls-6" d="M132.37,44.23a3.82,3.82,0,1,1,3.82-3.82A3.82,3.82,0,0,1,132.37,44.23Zm0-7.07a3.25,3.25,0,1,0,3.25,3.25A3.25,3.25,0,0,0,132.37,37.16Z"/><rect class="cls-6" x="123.8" y="40.02" width="5.34" height="0.7"/><rect class="cls-6" x="135.89" y="40.07" width="5.94" height="0.7"/><rect class="cls-6" x="110.81" y="40.02" width="5.94" height="0.7"/><path class="cls-10" d="M100.6,72.29a4.4,4.4,0,0,1-4.4,4.4H85.76a4.4,4.4,0,0,1-4.4-4.4l3.13-18.22a4.4,4.4,0,0,1,4.4-4.4h4.46a4.4,4.4,0,0,1,4.4,4.4Z"/><circle class="cls-5" cx="90.54" cy="40.92" r="15.36"/><circle class="cls-6" cx="84.35" cy="41.31" r="1.6"/><circle class="cls-6" cx="96.58" cy="41.31" r="1.6"/><ellipse class="cls-7" cx="90.29" cy="44.51" rx="2.28" ry="1.6"/><path class="cls-8" d="M90.66,50.94a8.6,8.6,0,0,1-5.35-2.07A.57.57,0,0,1,86,48c5.12,4,8.82.22,9,.06a.57.57,0,0,1,.83.78A7.66,7.66,0,0,1,90.66,50.94Z"/><path class="cls-4" d="M106,40.92C99.58,39.83,92.8,34.09,91,29.4c-1.88,5-11.84,11-15.95,11.52a15.51,15.51,0,1,1,31,0Z"/><path class="cls-10" d="M62.17,77a4.4,4.4,0,0,1-4.4,4.4H47.33a4.4,4.4,0,0,1-4.4-4.4l3.13-18.22a4.4,4.4,0,0,1,4.4-4.4h4.46a4.4,4.4,0,0,1,4.4,4.4Z"/><circle class="cls-5" cx="52.11" cy="45.59" r="15.36"/><circle class="cls-6" cx="45.92" cy="45.98" r="1.6"/><circle class="cls-6" cx="58.15" cy="45.98" r="1.6"/><ellipse class="cls-7" cx="51.86" cy="49.18" rx="2.28" ry="1.6"/><path class="cls-8" d="M52.23,55.61a8.6,8.6,0,0,1-5.35-2.07.57.57,0,0,1,.7-.9c5.13,4,8.82.22,9,.06a.57.57,0,0,1,.83.78A7.67,7.67,0,0,1,52.23,55.61Z"/><path class="cls-4" d="M36.6,45.59c1.66-.28,6.7-5.08,7.13-7.07a28.94,28.94,0,0,0,7,3.13c0-3.27.08-3.13,1-5.41,1.88,5,11.84,8.78,15.95,9.34a15.51,15.51,0,1,0-31,0Z"/><circle class="cls-9" cx="71.08" cy="54.27" r="8.86"/><path class="cls-3" d="M73.94,76.53H69.49a4.38,4.38,0,0,0-2.65.9l4.72,16.48,5.51-16.08A4.39,4.39,0,0,0,73.94,76.53Z"/><path class="cls-12" d="M78.35,80.94a4.39,4.39,0,0,0-1.28-3.11L71.55,93.91,66.83,77.43a4.39,4.39,0,0,0-1.75,3.51L62,99.16a4.4,4.4,0,0,0,4.4,4.4H76.79a4.4,4.4,0,0,0,4.4-4.4Z"/><circle class="cls-5" cx="71.13" cy="67.79" r="15.36"/><circle class="cls-6" cx="64.94" cy="68.18" r="1.6"/><circle class="cls-6" cx="77.17" cy="68.18" r="1.6"/><ellipse class="cls-7" cx="70.88" cy="71.38" rx="2.28" ry="1.6"/><path class="cls-8" d="M71.25,77.8a8.6,8.6,0,0,1-5.35-2.07.57.57,0,0,1,.7-.9c5.12,4,8.82.22,9,.06a.57.57,0,0,1,.83.78A7.66,7.66,0,0,1,71.25,77.8Z"/><path class="cls-9" d="M86.63,67.79a11.9,11.9,0,0,1-9.74-8c-2.28,3.13-8.41,3.49-11.27,3.49-8.56,0-10,13-10,4.48a15.51,15.51,0,1,1,31,0Z"/><circle class="cls-9" cx="19.13" cy="35.17" r="8.86"/><path class="cls-3" d="M22,57.44H17.54a4.38,4.38,0,0,0-2.65.9L19.6,74.82l5.51-16.08A4.39,4.39,0,0,0,22,57.44Z"/><path class="cls-12" d="M26.4,61.84a4.39,4.39,0,0,0-1.28-3.11L19.6,74.82,14.88,58.33a4.39,4.39,0,0,0-1.75,3.51L10,80.06a4.4,4.4,0,0,0,4.4,4.4H24.84a4.4,4.4,0,0,0,4.4-4.4Z"/><circle class="cls-5" cx="19.18" cy="48.69" r="15.36"/><circle class="cls-6" cx="12.99" cy="49.08" r="1.6"/><circle class="cls-6" cx="25.22" cy="49.08" r="1.6"/><ellipse class="cls-7" cx="18.93" cy="52.28" rx="2.28" ry="1.6"/><path class="cls-8" d="M19.3,58.7A8.6,8.6,0,0,1,14,56.63a.57.57,0,0,1,.7-.9c5.12,4,8.82.22,9,.06a.57.57,0,0,1,.83.78A7.66,7.66,0,0,1,19.3,58.7Z"/><path class="cls-9" d="M34.68,48.69a11.9,11.9,0,0,1-9.74-8c-2.28,3.13-8.41,3.49-11.27,3.49-8.56,0-10,13-10,4.48a15.51,15.51,0,1,1,31,0Z"/><rect class="cls-3" x="29.84" y="81.07" width="11.11" height="15.86"/><path class="cls-12" d="M45,100.37a4.4,4.4,0,0,1-4.4,4.4H30.13a4.4,4.4,0,0,1-4.4-4.4l3.13-18.22c0-2.43,6.49,11.16,6.49,11.16s6.78-13.6,6.78-11.16Z"/><polygon class="cls-14" points="42.11 82.24 39.87 96.53 35.35 93.32 40.93 81.67 42.11 82.24"/><polygon class="cls-14" points="28.59 82.24 30.83 96.53 35.35 93.32 29.76 81.67 28.59 82.24"/><circle class="cls-5" cx="34.9" cy="69" r="15.36"/><circle class="cls-6" cx="28.71" cy="69.39" r="1.6"/><circle class="cls-6" cx="40.95" cy="69.39" r="1.6"/><ellipse class="cls-7" cx="34.65" cy="72.59" rx="2.28" ry="1.6"/><path class="cls-8" d="M35,79.59a8.6,8.6,0,0,1-5.35-2.07.57.57,0,1,1,.7-.9c5.13,4,8.82.22,9,.06a.57.57,0,0,1,.83.78A7.67,7.67,0,0,1,35,79.59Z"/><path class="cls-2" d="M50.41,69c-1.66-.28-6.7-5.08-7.13-7.07a29,29,0,0,1-7,3.13c0-3.27-.08-3.13-1-5.41-1.88,5-11.84,8.78-15.95,9.34a15.51,15.51,0,0,1,31,0Z"/><path class="cls-15" d="M117.34,96.62c0,2.43-6,7.53-8.39,7.53h-6.45a4.4,4.4,0,0,1-4.4-4.4l3.13-18.22a4.4,4.4,0,0,1,4.4-4.4h4.46a4.4,4.4,0,0,1,4.4,4.4Z"/><circle class="cls-5" cx="107.28" cy="68.38" r="15.36"/><circle class="cls-6" cx="101.09" cy="68.77" r="1.6"/><circle class="cls-6" cx="113.32" cy="68.77" r="1.6"/><ellipse class="cls-7" cx="107.03" cy="71.97" rx="2.28" ry="1.6"/><path class="cls-8" d="M107.4,78.39a8.6,8.6,0,0,1-5.35-2.07.57.57,0,0,1,.7-.9c5.13,4,8.82.22,9,.06a.57.57,0,0,1,.83.78A7.66,7.66,0,0,1,107.4,78.39Z"/><g class="cls-16"><ellipse class="cls-1" cx="93.32" cy="62.68" rx="3.88" ry="8.24"/><ellipse class="cls-1" cx="121.49" cy="63.25" rx="3.88" ry="8.24"/></g><path class="cls-10" d="M98.38,123.36a4.4,4.4,0,0,1-4.4,4.4H83.55a4.4,4.4,0,0,1-4.4-4.4l3.13-18.22a4.4,4.4,0,0,1,4.4-4.4h4.46a4.4,4.4,0,0,1,4.4,4.4Z"/><rect class="cls-10" x="85.72" y="103.95" width="5.97" height="23.81"/><circle class="cls-5" cx="88.32" cy="91.98" r="15.36"/><circle class="cls-6" cx="82.13" cy="92.38" r="1.6"/><circle class="cls-6" cx="94.37" cy="92.38" r="1.6"/><ellipse class="cls-7" cx="88.07" cy="95.58" rx="2.28" ry="1.6"/><path class="cls-8" d="M88.45,102a8.6,8.6,0,0,1-5.35-2.07.57.57,0,0,1,.7-.9c5.13,4,8.82.22,9,.06a.57.57,0,0,1,.83.78A7.67,7.67,0,0,1,88.45,102Z"/><path class="cls-4" d="M103.83,92a11.9,11.9,0,0,1-9.74-8c-2.28,3.13-8.41,3.49-11.27,3.49-8.56,0-10,13-10,4.48a15.51,15.51,0,1,1,31,0Z"/><path class="cls-2" d="M70.16,112.38c-.14,5.5-30.94,5-30.94,0V93l31,.64S70.3,106.87,70.16,112.38Z"/><path class="cls-3" d="M57.52,102.55H53.06a4.38,4.38,0,0,0-2.65.9l4.72,16.48,5.51-16.08A4.39,4.39,0,0,0,57.52,102.55Z"/><path class="cls-10" d="M61.92,101.55c0,4.19-.49,3.09-1.28,2.3l-5.12,12.47L50.4,103.45A4.39,4.39,0,0,0,48.65,107l-3.13,18.22a4.4,4.4,0,0,0,4.4,4.4H60.36c2.43,0,4.4-2,4.4-9.81Z"/><polygon class="cls-11" points="62.28 105.24 60.04 119.54 55.52 116.32 59.83 104.14 62.28 105.24"/><polygon class="cls-11" points="48.76 105.24 51 119.54 55.52 116.32 51.11 104.31 48.76 105.24"/><circle class="cls-5" cx="54.7" cy="93.8" r="15.36"/><circle class="cls-6" cx="48.51" cy="94.2" r="1.6"/><circle class="cls-6" cx="60.75" cy="94.2" r="1.6"/><ellipse class="cls-7" cx="54.45" cy="97.4" rx="2.28" ry="1.6"/><path class="cls-8" d="M54.83,103.82a8.6,8.6,0,0,1-5.35-2.07.57.57,0,0,1,.7-.9c5.13,4,8.82.22,9,.06a.57.57,0,0,1,.83.78A7.66,7.66,0,0,1,54.83,103.82Z"/><path class="cls-2" d="M70.21,93.8c-6.46-1.09-15.42-6.31-16.47-9C51.46,88,51.17,89,47.81,89.72c-8.38,1.77-8.61,12.65-8.61,4.08a15.51,15.51,0,1,1,31,0Z"/><path class="cls-9" d="M31,109.65c-.14,5.5-30.94,5-30.94,0V93.73l31,.64S31.1,104.15,31,109.65Z"/><path class="cls-3" d="M18.32,103.24H13.86a4.38,4.38,0,0,0-2.65.9l4.72,16.48,5.51-16.08A4.39,4.39,0,0,0,18.32,103.24Z"/><path class="cls-15" d="M22.72,102.24c0,4.19-.49,3.09-1.28,2.3L16.32,117l-5.12-12.87a4.39,4.39,0,0,0-1.75,3.51L6.33,125.86a4.4,4.4,0,0,0,4.4,4.4H21.17c2.43,0,4.4-2,4.4-9.81Z"/><polygon class="cls-17" points="23.09 105.93 20.84 120.22 16.32 117.01 20.64 104.83 23.09 105.93"/><polygon class="cls-17" points="9.56 105.93 11.8 120.22 16.32 117.01 11.91 104.99 9.56 105.93"/><circle class="cls-5" cx="15.51" cy="94.49" r="15.36"/><circle class="cls-6" cx="9.32" cy="94.88" r="1.6"/><circle class="cls-6" cx="21.55" cy="94.88" r="1.6"/><ellipse class="cls-7" cx="15.26" cy="98.08" rx="2.28" ry="1.6"/><path class="cls-8" d="M15.63,104.51a8.6,8.6,0,0,1-5.35-2.07.57.57,0,0,1,.7-.9c5.13,4,8.82.22,9,.06a.57.57,0,0,1,.83.78A7.66,7.66,0,0,1,15.63,104.51Z"/><path class="cls-9" d="M31,94.49c-6.46-1.09-15.42-6.31-16.47-9C12.27,88.66,12,89.7,8.61,90.41.23,92.18,0,103.06,0,94.49a15.51,15.51,0,0,1,31,0Z"/><path class="cls-10" d="M47.74,151.39a4.4,4.4,0,0,1-4.4,4.4H32.9a4.4,4.4,0,0,1-4.4-4.4l3.13-18.22a4.4,4.4,0,0,1,4.4-4.4h4.46a4.4,4.4,0,0,1,4.4,4.4Z"/><rect class="cls-4" x="35.25" y="131.98" width="5.97" height="23.81"/><circle class="cls-5" cx="37.68" cy="120.01" r="15.36"/><circle class="cls-6" cx="31.49" cy="120.4" r="1.6"/><circle class="cls-6" cx="43.72" cy="120.4" r="1.6"/><ellipse class="cls-7" cx="37.43" cy="123.61" rx="2.28" ry="1.6"/><path class="cls-8" d="M37.8,130A8.6,8.6,0,0,1,32.45,128a.57.57,0,1,1,.7-.9c5.13,4,8.82.22,9,.06a.57.57,0,0,1,.83.78A7.67,7.67,0,0,1,37.8,130Z"/><path class="cls-4" d="M53.18,120c-1.46-.25-2.08-4.69-5.44-7.07s-2.57,2.7-9.62,2.7-6.88-5.12-10.08-2.77-4,6.88-5.87,7.14a15.51,15.51,0,0,1,31,0Z"/><path class="cls-6" d="M31.52,124.23a3.82,3.82,0,1,1,3.82-3.82A3.82,3.82,0,0,1,31.52,124.23Zm0-7.07a3.25,3.25,0,1,0,3.25,3.25A3.25,3.25,0,0,0,31.52,117.16Z"/><path class="cls-6" d="M43.72,124.22a3.82,3.82,0,1,1,3.82-3.82A3.82,3.82,0,0,1,43.72,124.22Zm0-7.07A3.25,3.25,0,1,0,47,120.4,3.25,3.25,0,0,0,43.72,117.15Z"/><rect class="cls-6" x="35.15" y="120.01" width="5.34" height="0.7"/><rect class="cls-6" x="47.24" y="120.06" width="5.94" height="0.7"/><rect class="cls-6" x="22.17" y="120.01" width="5.94" height="0.7"/><path class="cls-12" d="M84.64,149.57a4.4,4.4,0,0,1-4.4,4.4H69.81a4.4,4.4,0,0,1-4.4-4.4l3.13-18.22a4.4,4.4,0,0,1,4.4-4.4h4.46a4.4,4.4,0,0,1,4.4,4.4Z"/><rect class="cls-13" x="73" y="130.17" width="4.34" height="23.8"/><circle class="cls-5" cx="74.58" cy="118.19" r="15.36"/><circle class="cls-6" cx="68.39" cy="118.59" r="1.6"/><circle class="cls-6" cx="80.62" cy="118.59" r="1.6"/><ellipse class="cls-7" cx="74.33" cy="121.79" rx="2.28" ry="1.6"/><path class="cls-8" d="M74.7,128.21a8.6,8.6,0,0,1-5.35-2.07.57.57,0,0,1,.7-.9c5.13,4,8.82.22,9,.06a.57.57,0,0,1,.83.78A7.67,7.67,0,0,1,74.7,128.21Z"/><g class="cls-18"><path class="cls-1" d="M64.5,112.5c0,4.55-2.87,8.57-5,8.57s-2.74-4-2.74-8.57,1.74-8.24,3.88-8.24S64.5,107.95,64.5,112.5Z"/><path class="cls-1" d="M92.67,113.07c0,4.55-1,8.62-3.12,8.62s-4.63-4.07-4.63-8.62,1.74-8.24,3.88-8.24S92.67,108.52,92.67,113.07Z"/></g><path class="cls-9" d="M88.92,112.68a15.36,15.36,0,0,0-27.15-3c1,.39.08,2.61,1.13,3C70.7,115.26,81.29,114.74,88.92,112.68Z"/><path class="cls-2" d="M41,142.48s-.8,15.09,3.11,21.23,19.35,3.27,23.9.36,4-21.59,4-21.59Z"/><path class="cls-15" d="M66.53,173.85a4.4,4.4,0,0,1-4.4,4.4H51.69a4.4,4.4,0,0,1-4.4-4.4l3.13-18.22a4.4,4.4,0,0,1,4.4-4.4h4.46a4.4,4.4,0,0,1,4.4,4.4Z"/><circle class="cls-5" cx="56.46" cy="142.48" r="15.36"/><circle class="cls-6" cx="50.27" cy="142.87" r="1.6"/><circle class="cls-6" cx="62.51" cy="142.87" r="1.6"/><ellipse class="cls-7" cx="56.21" cy="146.07" rx="2.28" ry="1.6"/><path class="cls-8" d="M56.59,152.49a8.6,8.6,0,0,1-5.35-2.07.57.57,0,0,1,.7-.9c5.13,4,8.82.22,9,.06a.57.57,0,0,1,.83.78A7.67,7.67,0,0,1,56.59,152.49Z"/><path class="cls-2" d="M41,142.48c1.66-.28,6.7-5.08,7.13-7.07a29,29,0,0,0,7,3.13c0-3.27.08-3.13,1-5.41,1.88,5,11.84,8.78,15.95,9.34a15.51,15.51,0,1,0-31,0Z"/><circle class="cls-9" cx="67.86" cy="173.23" r="8.86"/><circle class="cls-9" cx="86.82" cy="173.23" r="8.86"/><path class="cls-19" d="M80.2,175.77H75.74a4.38,4.38,0,0,0-2.65.9l4.72,16.48,5.51-16.08A4.39,4.39,0,0,0,80.2,175.77Z"/><path class="cls-4" d="M84.61,180.17a4.39,4.39,0,0,0-1.28-3.11l-5.51,16.08-4.72-16.48a4.39,4.39,0,0,0-1.75,3.51l-3.13,18.22a4.4,4.4,0,0,0,4.4,4.4H83a4.4,4.4,0,0,0,4.4-4.4Z"/><circle class="cls-5" cx="77.39" cy="167.02" r="15.36"/><circle class="cls-6" cx="71.2" cy="167.41" r="1.6"/><circle class="cls-6" cx="83.43" cy="167.41" r="1.6"/><ellipse class="cls-7" cx="77.14" cy="170.61" rx="2.28" ry="1.6"/><path class="cls-8" d="M77.51,177A8.6,8.6,0,0,1,72.16,175a.57.57,0,0,1,.7-.9c5.13,4,8.82.22,9,.06a.57.57,0,0,1,.83.78A7.66,7.66,0,0,1,77.51,177Z"/><path class="cls-9" d="M92.89,167a11.9,11.9,0,0,1-9.74-8c-2.28,3.13-8.41,3.49-11.27,3.49-8.56,0-10,13-10,4.48a15.51,15.51,0,1,1,31,0Z"/><path class="cls-6" d="M71.23,171.19a3.82,3.82,0,1,1,3.82-3.82A3.82,3.82,0,0,1,71.23,171.19Zm0-7.07a3.25,3.25,0,1,0,3.25,3.25A3.25,3.25,0,0,0,71.23,164.12Z"/><path class="cls-6" d="M83.43,171.18a3.82,3.82,0,1,1,3.82-3.82A3.82,3.82,0,0,1,83.43,171.18Zm0-7.07a3.25,3.25,0,1,0,3.25,3.25A3.25,3.25,0,0,0,83.43,164.11Z"/><rect class="cls-6" x="74.86" y="166.97" width="5.34" height="0.7"/><rect class="cls-6" x="86.95" y="167.02" width="5.94" height="0.7"/><rect class="cls-6" x="61.88" y="166.97" width="5.94" height="0.7"/><rect class="cls-19" x="12.82" y="148.86" width="11.11" height="15.86"/><path class="cls-12" d="M27.94,168.17a4.4,4.4,0,0,1-4.4,4.4H13.11a4.4,4.4,0,0,1-4.4-4.4l3.13-18.22c0-2.43,6.49,11.16,6.49,11.16s6.78-13.6,6.78-11.16Z"/><polygon class="cls-13" points="25.09 150.03 22.84 164.33 18.32 161.12 23.91 149.47 25.09 150.03"/><polygon class="cls-13" points="11.56 150.03 13.8 164.33 18.32 161.12 12.74 149.47 11.56 150.03"/><circle class="cls-5" cx="17.88" cy="136.8" r="15.36"/><circle class="cls-6" cx="11.69" cy="137.19" r="1.6"/><circle class="cls-6" cx="23.93" cy="137.19" r="1.6"/><ellipse class="cls-7" cx="17.63" cy="140.39" rx="2.28" ry="1.6"/><path class="cls-8" d="M18,147.38a8.6,8.6,0,0,1-5.35-2.07.57.57,0,0,1,.7-.9c5.13,4,8.82.22,9,.06a.57.57,0,0,1,.83.78A7.66,7.66,0,0,1,18,147.38Z"/><path class="cls-2" d="M33.39,136.8c-1.66-.28-6.7-5.08-7.13-7.07a28.93,28.93,0,0,1-7,3.13c0-3.27-.08-3.13-1-5.41-1.88,5-11.84,8.78-15.95,9.34a15.51,15.51,0,0,1,31,0Z"/><rect class="cls-19" x="36.93" y="175.44" width="11.11" height="15.86"/><path class="cls-10" d="M52.06,194.75a4.4,4.4,0,0,1-4.4,4.4H37.22a4.4,4.4,0,0,1-4.4-4.4l3.13-18.22c0-2.43,6.49,11.16,6.49,11.16s6.77-13.6,6.77-11.16Z"/><polygon class="cls-11" points="49.2 176.61 46.96 190.91 42.44 187.69 48.02 176.04 49.2 176.61"/><polygon class="cls-11" points="35.67 176.61 37.91 190.91 42.44 187.69 36.85 176.04 35.67 176.61"/><circle class="cls-5" cx="41.99" cy="163.37" r="15.36"/><circle class="cls-6" cx="35.8" cy="163.77" r="1.6"/><circle class="cls-6" cx="48.04" cy="163.77" r="1.6"/><ellipse class="cls-7" cx="41.74" cy="166.97" rx="2.28" ry="1.6"/><path class="cls-8" d="M42.12,174a8.6,8.6,0,0,1-5.35-2.07.57.57,0,0,1,.7-.9c5.13,4,8.82.22,9,.06a.57.57,0,0,1,.83.78A7.67,7.67,0,0,1,42.12,174Z"/><path class="cls-9" d="M57.35,163.37c-1.66-.28-6.56-5.08-7-7.07a29,29,0,0,1-7,3.13c0-3.27-.08-3.13-1-5.41-1.88,5-11.7,8.78-15.81,9.34a15.36,15.36,0,1,1,30.73,0Z"/><path class="cls-9" d="M29.56,154.35a15.35,15.35,0,0,0,.84,19.1,12.13,12.13,0,0,0,3.45-3C27.89,168.1,29,162.17,29.56,154.35Z"/><path class="cls-9" d="M56.64,158.73c-1,4.64-1.29,10.54-6.62,12.39a25.69,25.69,0,0,0,3.57,2.32,15.37,15.37,0,0,0,3-14.71Z"/><path class="cls-4" d="M166.79,41.94c-.14,5.5-30.94,5-30.94,0V17.2l31,.64S166.94,36.43,166.79,41.94Z"/><path class="cls-19" d="M154.15,26.71H149.7a4.38,4.38,0,0,0-2.65.9l4.72,16.48L157.27,28A4.39,4.39,0,0,0,154.15,26.71Z"/><path class="cls-15" d="M158.56,31.11A4.39,4.39,0,0,0,157.27,28l-5.51,16.08L147,27.6a4.39,4.39,0,0,0-1.75,3.51l-3.13,18.22a4.4,4.4,0,0,0,4.4,4.4H157a4.4,4.4,0,0,0,4.4-4.4Z"/><circle class="cls-5" cx="151.34" cy="17.96" r="15.36"/><circle class="cls-6" cx="145.15" cy="18.35" r="1.6"/><circle class="cls-6" cx="157.38" cy="18.35" r="1.6"/><ellipse class="cls-7" cx="151.09" cy="21.55" rx="2.28" ry="1.6"/><path class="cls-8" d="M151.46,28a8.6,8.6,0,0,1-5.35-2.07.57.57,0,0,1,.7-.9c5.13,4,8.82.22,9,.06a.57.57,0,0,1,.83.78A7.67,7.67,0,0,1,151.46,28Z"/><path class="cls-4" d="M166.84,18a11.9,11.9,0,0,1-9.74-8c-2.28,3.13-8.41,3.48-11.27,3.48-8.56,0-10,13-10,4.48a15.51,15.51,0,0,1,31,0Z"/><rect class="cls-3" x="191.8" y="79.36" width="11.11" height="15.86"/><path class="cls-10" d="M206.93,98.67a4.4,4.4,0,0,1-4.4,4.4H192.09a4.4,4.4,0,0,1-4.4-4.4l3.13-18.22c0-2.43,6.49,11.16,6.49,11.16s6.77-13.6,6.77-11.16Z"/><polygon class="cls-11" points="204.07 80.53 201.83 94.83 197.31 91.61 202.9 79.96 204.07 80.53"/><polygon class="cls-11" points="190.55 80.53 192.79 94.83 197.31 91.61 191.72 79.96 190.55 80.53"/><circle class="cls-5" cx="196.87" cy="67.29" r="15.36"/><circle class="cls-6" cx="190.68" cy="67.69" r="1.6"/><circle class="cls-6" cx="202.91" cy="67.69" r="1.6"/><ellipse class="cls-7" cx="196.62" cy="70.89" rx="2.28" ry="1.6"/><path class="cls-8" d="M197,77.88a8.6,8.6,0,0,1-5.35-2.07.57.57,0,1,1,.7-.9c5.13,4,8.82.22,9,.06a.57.57,0,0,1,.83.78A7.67,7.67,0,0,1,197,77.88Z"/><path class="cls-9" d="M212.23,67.29c-1.66-.28-6.56-5.08-7-7.07a29,29,0,0,1-7,3.13c0-3.27-.08-3.13-1-5.41-1.88,5-11.7,8.78-15.81,9.34a15.36,15.36,0,1,1,30.73,0Z"/><path class="cls-9" d="M184.44,58.27a15.35,15.35,0,0,0,.85,19.1,12.14,12.14,0,0,0,3.45-3C182.77,72,183.87,66.08,184.44,58.27Z"/><path class="cls-9" d="M211.52,62.65c-1,4.64-1.29,10.54-6.62,12.39a25.65,25.65,0,0,0,3.57,2.32,15.37,15.37,0,0,0,3-14.71Z"/><g class="cls-20"><path class="cls-2" d="M104.45,137.82S98.85,198,147.17,198s41.6-60.22,41.6-60.22Z"/><rect class="cls-19" x="132.84" y="170.63" width="30.21" height="43.12"/><path class="cls-15" d="M174,223.12a12,12,0,0,1-12,12H133.64a12,12,0,0,1-12-12l8.51-49.54c0-6.61,17.65,30.35,17.65,30.35s18.42-37,18.42-30.35Z"/><polygon class="cls-17" points="166.2 173.82 160.11 212.69 147.82 203.94 163.01 172.27 166.2 173.82"/><polygon class="cls-17" points="129.44 173.82 135.53 212.69 147.82 203.94 132.63 172.27 129.44 173.82"/><circle class="cls-5" cx="146.61" cy="137.82" r="41.77"/><circle class="cls-6" cx="129.79" cy="138.89" r="4.35"/><circle class="cls-6" cx="163.05" cy="138.89" r="4.35"/><ellipse class="cls-7" cx="145.93" cy="147.59" rx="6.19" ry="4.35"/><path class="cls-8" d="M147,166.6c-4.21,0-9.16-1.41-14.54-5.64a1.55,1.55,0,0,1,1.91-2.43c13.93,10.94,24,.6,24.41.16a1.55,1.55,0,0,1,2.26,2.12A20.84,20.84,0,0,1,147,166.6Z"/><path class="cls-2" d="M188.77,137.82c-4.52-.76-18.22-13.8-19.38-19.22-6.09,3.27-9.67,5.8-19,8.51-.13-8.9-.22-8.5-2.62-14.7-5.11,13.54-32.19,23.86-43.37,25.41a42.16,42.16,0,0,1,84.32,0Z"/></g><path class="cls-2" d="M123.23,67.62c-6.46-1.09-15.42-6.31-16.47-9-2.28,3.13-2.57,4.17-5.93,4.88-8.38,1.77-8.61,12.65-8.61,4.08a15.51,15.51,0,1,1,31,0Z"/><circle class="cls-9" cx="148.63" cy="49.76" r="8.86"/><path class="cls-3" d="M151.5,72H147a4.38,4.38,0,0,0-2.65.9l4.72,16.48,5.51-16.08A4.39,4.39,0,0,0,151.5,72Z"/><circle class="cls-5" cx="148.68" cy="63.27" r="15.36"/><circle class="cls-6" cx="142.5" cy="63.67" r="1.6"/><circle class="cls-6" cx="154.73" cy="63.67" r="1.6"/><ellipse class="cls-7" cx="148.44" cy="66.87" rx="2.28" ry="1.6"/><path class="cls-8" d="M148.81,73.29a8.6,8.6,0,0,1-5.35-2.07.57.57,0,0,1,.7-.9c5.12,4,8.82.22,9,.06a.57.57,0,0,1,.83.78A7.66,7.66,0,0,1,148.81,73.29Z"/><path class="cls-9" d="M164.19,63.27a11.9,11.9,0,0,1-9.74-8c-2.28,3.13-8.41,3.49-11.27,3.49-8.56,0-10,13-10,4.48a15.51,15.51,0,1,1,31,0Z"/><path class="cls-21" d="M194.18,88.94a73,73,0,1,0,.67,110.67L248.21,245a3.49,3.49,0,0,0,4.92-.4l9.55-11.23a3.49,3.49,0,0,0-.4-4.92l-53.37-45.39a73,73,0,0,0-14.74-94.13Zm-7.07,89.83a52.81,52.81,0,1,1-6-74.44A52.87,52.87,0,0,1,187.1,178.76Z"/></g></g></svg>